<svg xmlns="http://www.w3.org/2000/svg" width="500" height="500" viewBox="0 0 500 500" version="1.1"><path d="M233.378 1.968C242.521 2.489 257.481 2.489 266.622 1.968C275.766 1.449 268.285 1.024 250 1.024C231.715 1.024 224.237 1.449 233.378 1.968M205.503 4.503C208.09 5.178 211.681 5.133 213.481 4.404C215.282 3.676 213.165 3.125 208.777 3.178C204.388 3.231 202.915 3.827 205.503 4.503M287.949 4.503C290.537 5.178 294.128 5.133 295.928 4.404C297.729 3.676 295.612 3.125 291.223 3.178C286.835 3.231 285.362 3.827 287.949 4.503M193.652 7.136C195.569 7.904 197.864 7.809 198.747 6.926C199.63 6.043 198.061 5.415 195.258 5.529C192.16 5.657 191.529 6.287 193.652 7.136M302.694 7.136C304.612 7.904 306.907 7.809 307.79 6.926C308.673 6.043 307.104 5.415 304.301 5.529C301.202 5.657 300.572 6.287 302.694 7.136M183.013 9.795C184.931 10.564 187.226 10.468 188.109 9.585C188.992 8.702 187.423 8.074 184.62 8.189C181.521 8.316 180.891 8.947 183.013 9.795M313.332 9.795C315.25 10.564 317.545 10.468 318.428 9.585C319.311 8.702 317.742 8.074 314.939 8.189C311.84 8.316 311.21 8.947 313.332 9.795M173.758 12.412C174.734 13.386 176.33 13.386 177.306 12.412C178.279 11.436 177.481 10.638 175.532 10.638C173.582 10.638 172.785 11.436 173.758 12.412M322.694 12.412C323.67 13.386 325.266 13.386 326.242 12.412C327.215 11.436 326.418 10.638 324.468 10.638C322.519 10.638 321.721 11.436 322.694 12.412M165.779 15.072C166.755 16.045 168.351 16.045 169.327 15.072C170.301 14.096 169.503 13.298 167.553 13.298C165.604 13.298 164.806 14.096 165.779 15.072M330.673 15.072C331.649 16.045 333.245 16.045 334.221 15.072C335.194 14.096 334.396 13.298 332.447 13.298C330.497 13.298 329.699 14.096 330.673 15.072M154.255 18.617C152.061 20.035 151.463 21.194 152.926 21.194C154.388 21.194 157.38 20.035 159.574 18.617C161.769 17.199 162.367 16.04 160.904 16.04C159.441 16.04 156.449 17.199 154.255 18.617M340.426 18.617C342.62 20.035 345.612 21.194 347.074 21.194C348.537 21.194 347.939 20.035 345.745 18.617C343.551 17.199 340.559 16.04 339.096 16.04C337.633 16.04 338.231 17.199 340.426 18.617M134.152 28.072C129.285 31.973 129.37 32.027 135.638 29.043C143.779 25.165 145.287 23.936 141.91 23.936C140.481 23.936 136.992 25.798 134.152 28.072M356.604 24.907C357.215 25.439 360.705 27.301 364.362 29.043C370.63 32.027 370.715 31.973 365.848 28.072C361.612 24.678 352.955 21.713 356.604 24.907M118.098 37.646C116.92 39.548 117.367 39.995 119.269 38.816C122.335 36.923 123.386 34.574 121.168 34.574C120.521 34.574 119.141 35.957 118.098 37.646M378.989 37.234C379.894 38.697 381.231 39.894 381.963 39.894C382.694 39.894 382.553 38.697 381.649 37.234C380.745 35.771 379.407 34.574 378.676 34.574C377.944 34.574 378.085 35.771 378.989 37.234M110.12 42.965C108.941 44.867 109.388 45.314 111.29 44.136C114.356 42.242 115.407 39.894 113.189 39.894C112.543 39.894 111.162 41.277 110.12 42.965M219.497 42.854C110.048 58.798 28.918 163.577 42.165 271.88C63.503 446.322 272.731 519.822 396.277 396.277C537.066 255.487 416.364 14.178 219.497 42.854M386.968 42.553C387.872 44.016 389.21 45.213 389.941 45.213C390.673 45.213 390.532 44.016 389.628 42.553C388.723 41.09 387.386 39.894 386.654 39.894C385.923 39.894 386.064 41.09 386.968 42.553M100.723 49.867C97.418 54.085 97.511 54.178 101.729 50.872C104.287 48.864 106.383 46.769 106.383 46.218C106.383 44.029 104.199 45.436 100.723 49.867M393.617 46.218C393.617 46.769 395.71 48.864 398.271 50.872C402.489 54.178 402.582 54.085 399.277 49.867C395.801 45.436 393.617 44.029 393.617 46.218M88.843 59.176L83.777 65.16 89.761 60.093C95.383 55.332 96.955 53.191 94.827 53.191C94.322 53.191 91.63 55.883 88.843 59.176M408.245 58.511C410.891 61.436 413.657 63.83 414.388 63.83C415.12 63.83 413.551 61.436 410.904 58.511C408.258 55.585 405.492 53.191 404.761 53.191C404.029 53.191 405.598 55.585 408.245 58.511M71.606 73.803L65.16 81.117 72.473 74.67C79.309 68.644 81.008 66.489 78.92 66.489C78.444 66.489 75.154 69.782 71.606 73.803M425.532 73.138C428.968 76.795 432.378 79.787 433.109 79.787C433.84 79.787 431.628 76.795 428.191 73.138C424.755 69.481 421.346 66.489 420.614 66.489C419.883 66.489 422.096 69.481 425.532 73.138M206.293 76.069C95.239 102.931 38.418 230.593 92.069 332.694C164.622 470.761 369.657 453.824 418.604 305.718C462.37 173.301 342.109 43.218 206.293 76.069M56.928 91.09L51.862 97.074 57.846 92.008C61.138 89.221 63.83 86.529 63.83 86.024C63.83 83.896 61.689 85.468 56.928 91.09M440.16 90.426C442.806 93.351 445.572 95.745 446.303 95.745C447.035 95.745 445.465 93.351 442.819 90.426C440.173 87.5 437.407 85.106 436.676 85.106C435.944 85.106 437.513 87.5 440.16 90.426M47.532 103.059C44.226 107.277 44.319 107.37 48.537 104.064C51.096 102.056 53.191 99.96 53.191 99.41C53.191 97.221 51.008 98.628 47.532 103.059M446.809 99.41C446.809 99.96 448.902 102.056 451.463 104.064C455.681 107.37 455.774 107.277 452.468 103.059C448.992 98.628 446.809 97.221 446.809 99.41M40.971 112.114C39.793 114.016 40.239 114.463 42.141 113.285C43.83 112.242 45.213 110.862 45.213 110.215C45.213 107.997 42.864 109.048 40.971 112.114M456.117 111.702C457.021 113.165 458.359 114.362 459.09 114.362C459.822 114.362 459.681 113.165 458.777 111.702C457.872 110.239 456.535 109.043 455.803 109.043C455.072 109.043 455.213 110.239 456.117 111.702M35.652 120.093C34.473 121.995 34.92 122.441 36.822 121.263C38.511 120.221 39.894 118.84 39.894 118.194C39.894 115.976 37.545 117.027 35.652 120.093M461.436 119.681C462.34 121.144 463.678 122.34 464.41 122.34C465.141 122.34 465 121.144 464.096 119.681C463.191 118.218 461.854 117.021 461.122 117.021C460.391 117.021 460.532 118.218 461.436 119.681M26.473 135.867C24.84 138.918 24.005 141.915 24.62 142.527C25.231 143.138 27.098 140.644 28.766 136.979C32.431 128.936 30.646 128.069 26.473 135.867M470.957 135.638C474.835 143.779 476.064 145.287 476.064 141.91C476.064 140.481 474.202 136.992 471.928 134.152C468.027 129.285 467.973 129.37 470.957 135.638M198.582 150.71C197.606 151.684 196.809 180.407 196.809 214.54L196.809 276.596 184.84 276.596L172.872 276.596 172.872 288.564L172.872 300.532 211.436 300.532L250 300.532 250 288.564L250 276.596 239.519 276.596C226.678 276.596 225.989 275.582 228.713 260.691C231.92 243.157 243.104 234.043 261.418 234.043C290.689 234.043 295.213 243.279 295.213 303.059L295.213 348.404 309.84 348.404L324.468 348.404 324.468 299.117C324.468 260.646 323.564 247.668 320.351 239.979C305.934 205.471 261.324 195.91 234.479 221.572C229.199 226.62 225.827 228.436 226.152 226.064C226.449 223.87 226.553 205.62 226.378 185.505L226.064 148.936 213.21 148.936C206.138 148.936 199.556 149.734 198.582 150.71M17.617 155.689C15.051 162.375 15.806 164.101 18.941 158.71C20.495 156.04 21.205 153.295 20.519 152.612C19.835 151.926 18.527 153.311 17.617 155.689M478.806 152.926C478.806 154.388 479.965 157.38 481.383 159.574C482.801 161.769 483.96 162.367 483.96 160.904C483.96 159.441 482.801 156.449 481.383 154.255C479.965 152.061 478.806 151.463 478.806 152.926M13.298 167.553C13.298 169.503 14.096 170.301 15.072 169.327C16.045 168.351 16.045 166.755 15.072 165.779C14.096 164.806 13.298 165.604 13.298 167.553M484.043 167.553C484.043 169.503 484.84 170.301 485.816 169.327C486.79 168.351 486.79 166.755 485.816 165.779C484.84 164.806 484.043 165.604 484.043 167.553M10.638 175.532C10.638 177.481 11.436 178.279 12.412 177.306C13.386 176.33 13.386 174.734 12.412 173.758C11.436 172.785 10.638 173.582 10.638 175.532M486.702 175.532C486.702 177.481 487.5 178.279 488.476 177.306C489.449 176.33 489.449 174.734 488.476 173.758C487.5 172.785 486.702 173.582 486.702 175.532M8.189 185.061C8.316 188.16 8.947 188.79 9.795 186.67C10.564 184.75 10.468 182.455 9.585 181.572C8.702 180.689 8.074 182.258 8.189 185.061M489.572 185.061C489.699 188.16 490.33 188.79 491.178 186.67C491.947 184.75 491.851 182.455 490.968 181.572C490.085 180.689 489.457 182.258 489.572 185.061M5.529 195.699C5.657 198.798 6.287 199.428 7.136 197.309C7.904 195.388 7.809 193.093 6.926 192.21C6.043 191.327 5.415 192.896 5.529 195.699M492.231 195.699C492.359 198.798 492.989 199.428 493.838 197.309C494.606 195.388 494.511 193.093 493.628 192.21C492.745 191.327 492.117 192.896 492.231 195.699M3.178 208.777C3.231 213.165 3.827 214.638 4.503 212.051C5.178 209.463 5.133 205.872 4.404 204.072C3.676 202.271 3.125 204.388 3.178 208.777M495.199 208.777C495.253 213.165 495.848 214.638 496.524 212.051C497.199 209.463 497.154 205.872 496.426 204.072C495.697 202.271 495.146 204.388 495.199 208.777M1.024 250C1.024 268.285 1.449 275.766 1.968 266.622C2.489 257.481 2.489 242.521 1.968 233.378C1.449 224.237 1.024 231.715 1.024 250M498.364 250C498.364 268.285 498.79 275.766 499.309 266.622C499.83 257.481 499.83 242.521 499.309 233.378C498.79 224.237 498.364 231.715 498.364 250M3.178 291.223C3.231 295.612 3.827 297.085 4.503 294.497C5.178 291.91 5.133 288.319 4.404 286.519C3.676 284.718 3.125 286.835 3.178 291.223M495.199 291.223C495.253 295.612 495.848 297.085 496.524 294.497C497.199 291.91 497.154 288.319 496.426 286.519C495.697 284.718 495.146 286.835 495.199 291.223M5.529 304.742C5.657 307.84 6.287 308.471 7.136 306.351C7.904 304.431 7.809 302.136 6.926 301.253C6.043 300.37 5.415 301.939 5.529 304.742M492.231 304.742C492.359 307.84 492.989 308.471 493.838 306.351C494.606 304.431 494.511 302.136 493.628 301.253C492.745 300.37 492.117 301.939 492.231 304.742M8.189 315.38C8.316 318.479 8.947 319.109 9.795 316.989C10.564 315.069 10.468 312.774 9.585 311.891C8.702 311.008 8.074 312.577 8.189 315.38M489.572 315.38C489.699 318.479 490.33 319.109 491.178 316.989C491.947 315.069 491.851 312.774 490.968 311.891C490.085 311.008 489.457 312.577 489.572 315.38M10.638 324.468C10.638 326.418 11.436 327.215 12.412 326.242C13.386 325.266 13.386 323.67 12.412 322.694C11.436 321.721 10.638 322.519 10.638 324.468M486.702 324.468C486.702 326.418 487.5 327.215 488.476 326.242C489.449 325.266 489.449 323.67 488.476 322.694C487.5 321.721 486.702 322.519 486.702 324.468M172.872 336.436L172.872 348.404 211.436 348.404L250 348.404 250 336.436L250 324.468 211.436 324.468L172.872 324.468 172.872 336.436M13.298 332.447C13.298 334.396 14.096 335.194 15.072 334.221C16.045 333.245 16.045 331.649 15.072 330.673C14.096 329.699 13.298 330.497 13.298 332.447M484.043 332.447C484.043 334.396 484.84 335.194 485.816 334.221C486.79 333.245 486.79 331.649 485.816 330.673C484.84 329.699 484.043 330.497 484.043 332.447M16.04 339.096C16.04 340.559 17.199 343.551 18.617 345.745C20.035 347.939 21.194 348.537 21.194 347.074C21.194 345.612 20.035 342.62 18.617 340.426C17.199 338.231 16.04 337.633 16.04 339.096M480.383 341.859C477.816 348.545 478.572 350.271 481.707 344.88C483.261 342.21 483.971 339.465 483.285 338.782C482.601 338.096 481.293 339.481 480.383 341.859M23.936 358.09C23.936 359.519 25.798 363.008 28.072 365.848C31.973 370.715 32.027 370.63 29.043 364.362C25.165 356.221 23.936 354.713 23.936 358.09M471.128 363.697C468.226 370.479 468.293 370.636 472.032 365.848C474.25 363.008 476.064 359.718 476.064 358.535C476.064 354.492 474.261 356.38 471.128 363.697M35.904 380.319C36.809 381.782 38.146 382.979 38.878 382.979C39.609 382.979 39.468 381.782 38.564 380.319C37.66 378.856 36.322 377.66 35.59 377.66C34.859 377.66 35 378.856 35.904 380.319M461.184 380.731C460.005 382.633 460.452 383.08 462.354 381.902C464.043 380.859 465.426 379.479 465.426 378.832C465.426 376.614 463.077 377.665 461.184 380.731M41.223 388.298C42.128 389.761 43.465 390.957 44.197 390.957C44.928 390.957 44.787 389.761 43.883 388.298C42.979 386.835 41.641 385.638 40.91 385.638C40.178 385.638 40.319 386.835 41.223 388.298M455.864 388.71C454.686 390.612 455.133 391.059 457.035 389.88C458.723 388.838 460.106 387.457 460.106 386.811C460.106 384.593 457.758 385.644 455.864 388.71M45.213 394.622C45.213 395.173 47.309 397.269 49.867 399.277C54.085 402.582 54.178 402.489 50.872 398.271C47.396 393.84 45.213 392.434 45.213 394.622M449.128 398.271C445.822 402.489 445.915 402.582 450.133 399.277C454.564 395.801 455.971 393.617 453.782 393.617C453.231 393.617 451.136 395.71 449.128 398.271M57.181 409.574C59.827 412.5 62.593 414.894 63.324 414.894C64.056 414.894 62.487 412.5 59.84 409.574C57.194 406.649 54.428 404.255 53.697 404.255C52.965 404.255 54.535 406.649 57.181 409.574M439.907 410.239L434.84 416.223 440.824 411.157C446.447 406.396 448.019 404.255 445.891 404.255C445.386 404.255 442.694 406.947 439.907 410.239M71.809 426.862C75.245 430.519 78.654 433.511 79.386 433.511C80.117 433.511 77.904 430.519 74.468 426.862C71.032 423.205 67.622 420.213 66.891 420.213C66.16 420.213 68.372 423.205 71.809 426.862M425.33 427.527L418.883 434.84 426.197 428.394C430.218 424.846 433.511 421.556 433.511 421.08C433.511 418.992 431.356 420.691 425.33 427.527M89.096 441.489C91.742 444.415 94.508 446.809 95.239 446.809C95.971 446.809 94.402 444.415 91.755 441.489C89.109 438.564 86.343 436.17 85.612 436.17C84.88 436.17 86.449 438.564 89.096 441.489M407.992 442.154L402.926 448.138 408.91 443.072C414.532 438.311 416.104 436.17 413.976 436.17C413.471 436.17 410.779 438.862 407.992 442.154M98.404 447.814C98.404 448.364 100.5 450.46 103.059 452.468C107.277 455.774 107.37 455.681 104.064 451.463C100.588 447.032 98.404 445.625 98.404 447.814M395.936 451.463C392.63 455.681 392.723 455.774 396.941 452.468C401.372 448.992 402.779 446.809 400.59 446.809C400.04 446.809 397.944 448.902 395.936 451.463M110.372 457.447C111.277 458.91 112.614 460.106 113.346 460.106C114.077 460.106 113.936 458.91 113.032 457.447C112.128 455.984 110.79 454.787 110.059 454.787C109.327 454.787 109.468 455.984 110.372 457.447M386.715 457.859C385.537 459.761 385.984 460.207 387.886 459.029C389.574 457.987 390.957 456.606 390.957 455.96C390.957 453.742 388.609 454.793 386.715 457.859M118.351 462.766C119.255 464.229 120.593 465.426 121.324 465.426C122.056 465.426 121.915 464.229 121.011 462.766C120.106 461.303 118.769 460.106 118.037 460.106C117.306 460.106 117.447 461.303 118.351 462.766M378.737 463.178C377.559 465.08 378.005 465.527 379.907 464.348C381.596 463.306 382.979 461.926 382.979 461.279C382.979 459.061 380.63 460.112 378.737 463.178M134.152 471.928C136.992 474.202 140.481 476.064 141.91 476.064C145.287 476.064 143.779 474.835 135.638 470.957C129.37 467.973 129.285 468.027 134.152 471.928M361.702 472.074C358.045 474.165 356.319 475.918 357.87 475.971C359.418 476.021 363.008 474.306 365.848 472.16C372.415 467.191 370.316 467.149 361.702 472.074M154.255 481.383C156.449 482.801 159.441 483.96 160.904 483.96C162.367 483.96 161.769 482.801 159.574 481.383C157.38 479.965 154.388 478.806 152.926 478.806C151.463 478.806 152.061 479.965 154.255 481.383M340.426 481.383C338.231 482.801 337.633 483.96 339.096 483.96C340.559 483.96 343.551 482.801 345.745 481.383C347.939 479.965 348.537 478.806 347.074 478.806C345.612 478.806 342.62 479.965 340.426 481.383M165.779 485.816C166.755 486.79 168.351 486.79 169.327 485.816C170.301 484.84 169.503 484.043 167.553 484.043C165.604 484.043 164.806 484.84 165.779 485.816M330.673 485.816C331.649 486.79 333.245 486.79 334.221 485.816C335.194 484.84 334.396 484.043 332.447 484.043C330.497 484.043 329.699 484.84 330.673 485.816M173.758 488.476C174.734 489.449 176.33 489.449 177.306 488.476C178.279 487.5 177.481 486.702 175.532 486.702C173.582 486.702 172.785 487.5 173.758 488.476M322.694 488.476C323.67 489.449 325.266 489.449 326.242 488.476C327.215 487.5 326.418 486.702 324.468 486.702C322.519 486.702 321.721 487.5 322.694 488.476M183.013 491.178C184.931 491.947 187.226 491.851 188.109 490.968C188.992 490.085 187.423 489.457 184.62 489.572C181.521 489.699 180.891 490.33 183.013 491.178M313.332 491.178C315.25 491.947 317.545 491.851 318.428 490.968C319.311 490.085 317.742 489.457 314.939 489.572C311.84 489.699 311.21 490.33 313.332 491.178M193.652 493.838C195.569 494.606 197.864 494.511 198.747 493.628C199.63 492.745 198.061 492.117 195.258 492.231C192.16 492.359 191.529 492.989 193.652 493.838M302.694 493.838C304.612 494.606 306.907 494.511 307.79 493.628C308.673 492.745 307.104 492.117 304.301 492.231C301.202 492.359 300.572 492.989 302.694 493.838M205.503 496.524C208.09 497.199 211.681 497.154 213.481 496.426C215.282 495.697 213.165 495.146 208.777 495.199C204.388 495.253 202.915 495.848 205.503 496.524M287.949 496.524C290.537 497.199 294.128 497.154 295.928 496.426C297.729 495.697 295.612 495.146 291.223 495.199C286.835 495.253 285.362 495.848 287.949 496.524M233.378 499.309C242.521 499.83 257.481 499.83 266.622 499.309C275.766 498.79 268.285 498.364 250 498.364C231.715 498.364 224.237 498.79 233.378 499.309" stroke="none" fill="#fffffd" fill-rule="evenodd" stroke-width="2.6595744680851063"/><path d="M198.181 6.918C39.585 42.226 -43.423 214.535 27.907 360.372C117.088 542.707 382.912 542.707 472.093 360.372C562.715 175.088 397.928 -37.553 198.181 6.918M219.497 42.854C110.048 58.798 28.918 163.577 42.165 271.88C63.503 446.322 272.731 519.822 396.277 396.277C537.066 255.487 416.364 14.178 219.497 42.854M206.293 76.069C95.239 102.931 38.418 230.593 92.069 332.694C164.622 470.761 369.657 453.824 418.604 305.718C462.37 173.301 342.109 43.218 206.293 76.069M198.582 150.71C197.606 151.684 196.809 180.407 196.809 214.54L196.809 276.596 184.84 276.596L172.872 276.596 172.872 288.564L172.872 300.532 211.436 300.532L250 300.532 250 288.564L250 276.596 239.519 276.596C226.678 276.596 225.989 275.582 228.713 260.691C231.92 243.157 243.104 234.043 261.418 234.043C290.689 234.043 295.213 243.279 295.213 303.059L295.213 348.404 309.84 348.404L324.468 348.404 324.468 299.117C324.468 260.646 323.564 247.668 320.351 239.979C305.934 205.471 261.324 195.91 234.479 221.572C229.199 226.62 225.827 228.436 226.152 226.064C226.449 223.87 226.553 205.62 226.378 185.505L226.064 148.936 213.21 148.936C206.138 148.936 199.556 149.734 198.582 150.71M172.872 336.436L172.872 348.404 211.436 348.404L250 348.404 250 336.436L250 324.468 211.436 324.468L172.872 324.468 172.872 336.436" stroke="none" fill="#000101" fill-rule="evenodd" stroke-width="2.6595744680851063"/></svg>