<svg xmlns="http://www.w3.org/2000/svg" width="188" height="188" viewBox="0 0 188 188" version="1.1"><path d="M 87.750 0.740 C 91.188 0.936, 96.813 0.936, 100.250 0.740 C 103.688 0.545, 100.875 0.385, 94 0.385 C 87.125 0.385, 84.313 0.545, 87.750 0.740 M 77.269 1.693 C 78.242 1.947, 79.592 1.930, 80.269 1.656 C 80.946 1.382, 80.150 1.175, 78.500 1.195 C 76.850 1.215, 76.296 1.439, 77.269 1.693 M 108.269 1.693 C 109.242 1.947, 110.592 1.930, 111.269 1.656 C 111.946 1.382, 111.150 1.175, 109.500 1.195 C 107.850 1.215, 107.296 1.439, 108.269 1.693 M 72.813 2.683 C 73.534 2.972, 74.397 2.936, 74.729 2.604 C 75.061 2.272, 74.471 2.036, 73.417 2.079 C 72.252 2.127, 72.015 2.364, 72.813 2.683 M 113.813 2.683 C 114.534 2.972, 115.397 2.936, 115.729 2.604 C 116.061 2.272, 115.471 2.036, 114.417 2.079 C 113.252 2.127, 113.015 2.364, 113.813 2.683 M 68.813 3.683 C 69.534 3.972, 70.397 3.936, 70.729 3.604 C 71.061 3.272, 70.471 3.036, 69.417 3.079 C 68.252 3.127, 68.015 3.364, 68.813 3.683 M 117.813 3.683 C 118.534 3.972, 119.397 3.936, 119.729 3.604 C 120.061 3.272, 119.471 3.036, 118.417 3.079 C 117.252 3.127, 117.015 3.364, 117.813 3.683 M 65.333 4.667 C 65.700 5.033, 66.300 5.033, 66.667 4.667 C 67.033 4.300, 66.733 4, 66 4 C 65.267 4, 64.967 4.300, 65.333 4.667 M 121.333 4.667 C 121.700 5.033, 122.300 5.033, 122.667 4.667 C 123.033 4.300, 122.733 4, 122 4 C 121.267 4, 120.967 4.300, 121.333 4.667 M 62.333 5.667 C 62.700 6.033, 63.300 6.033, 63.667 5.667 C 64.033 5.300, 63.733 5, 63 5 C 62.267 5, 61.967 5.300, 62.333 5.667 M 124.333 5.667 C 124.700 6.033, 125.300 6.033, 125.667 5.667 C 126.033 5.300, 125.733 5, 125 5 C 124.267 5, 123.967 5.300, 124.333 5.667 M 58 7 C 57.175 7.533, 56.950 7.969, 57.500 7.969 C 58.050 7.969, 59.175 7.533, 60 7 C 60.825 6.467, 61.050 6.031, 60.500 6.031 C 59.950 6.031, 58.825 6.467, 58 7 M 128 7 C 128.825 7.533, 129.950 7.969, 130.500 7.969 C 131.050 7.969, 130.825 7.533, 130 7 C 129.175 6.467, 128.050 6.031, 127.500 6.031 C 126.950 6.031, 127.175 6.467, 128 7 M 50.441 10.555 C 48.611 12.022, 48.643 12.042, 51 10.920 C 54.061 9.462, 54.628 9, 53.358 9 C 52.821 9, 51.509 9.700, 50.441 10.555 M 134.083 9.365 C 134.313 9.565, 135.625 10.265, 137 10.920 C 139.357 12.042, 139.389 12.022, 137.559 10.555 C 135.966 9.279, 132.711 8.164, 134.083 9.365 M 44.405 14.155 C 43.962 14.870, 44.130 15.038, 44.845 14.595 C 45.998 13.883, 46.393 13, 45.559 13 C 45.316 13, 44.797 13.520, 44.405 14.155 M 142.500 14 C 142.840 14.550, 143.343 15, 143.618 15 C 143.893 15, 143.840 14.550, 143.500 14 C 143.160 13.450, 142.657 13, 142.382 13 C 142.107 13, 142.160 13.450, 142.500 14 M 41.405 16.155 C 40.962 16.870, 41.130 17.038, 41.845 16.595 C 42.998 15.883, 43.393 15, 42.559 15 C 42.316 15, 41.797 15.520, 41.405 16.155 M 82.531 16.113 C 41.378 22.108, 10.873 61.505, 15.854 102.227 C 23.877 167.817, 102.547 195.453, 149 149 C 201.937 96.063, 156.553 5.331, 82.531 16.113 M 145.500 16 C 145.840 16.550, 146.343 17, 146.618 17 C 146.893 17, 146.840 16.550, 146.500 16 C 146.160 15.450, 145.657 15, 145.382 15 C 145.107 15, 145.160 15.450, 145.500 16 M 37.872 18.750 C 36.629 20.336, 36.664 20.371, 38.250 19.128 C 39.212 18.373, 40 17.585, 40 17.378 C 40 16.555, 39.179 17.084, 37.872 18.750 M 148 17.378 C 148 17.585, 148.787 18.373, 149.750 19.128 C 151.336 20.371, 151.371 20.336, 150.128 18.750 C 148.821 17.084, 148 16.555, 148 17.378 M 33.405 22.250 L 31.500 24.500 33.750 22.595 C 35.864 20.805, 36.455 20, 35.655 20 C 35.465 20, 34.453 21.012, 33.405 22.250 M 153.500 22 C 154.495 23.100, 155.535 24, 155.810 24 C 156.085 24, 155.495 23.100, 154.500 22 C 153.505 20.900, 152.465 20, 152.190 20 C 151.915 20, 152.505 20.900, 153.500 22 M 26.924 27.750 L 24.500 30.500 27.250 28.076 C 29.820 25.810, 30.459 25, 29.674 25 C 29.495 25, 28.258 26.238, 26.924 27.750 M 160 27.500 C 161.292 28.875, 162.574 30, 162.849 30 C 163.124 30, 162.292 28.875, 161 27.500 C 159.708 26.125, 158.426 25, 158.151 25 C 157.876 25, 158.708 26.125, 160 27.500 M 77.566 28.602 C 35.810 38.702, 14.445 86.703, 34.618 125.093 C 61.898 177.006, 138.991 170.638, 157.395 114.950 C 173.851 65.161, 128.633 16.250, 77.566 28.602 M 21.405 34.250 L 19.500 36.500 21.750 34.595 C 22.988 33.547, 24 32.535, 24 32.345 C 24 31.545, 23.195 32.136, 21.405 34.250 M 165.500 34 C 166.495 35.100, 167.535 36, 167.810 36 C 168.085 36, 167.495 35.100, 166.500 34 C 165.505 32.900, 164.465 32, 164.190 32 C 163.915 32, 164.505 32.900, 165.500 34 M 17.872 38.750 C 16.629 40.336, 16.664 40.371, 18.250 39.128 C 19.212 38.373, 20 37.585, 20 37.378 C 20 36.555, 19.179 37.084, 17.872 38.750 M 168 37.378 C 168 37.585, 168.787 38.373, 169.750 39.128 C 171.336 40.371, 171.371 40.336, 170.128 38.750 C 168.821 37.084, 168 36.555, 168 37.378 M 15.405 42.155 C 14.962 42.870, 15.130 43.038, 15.845 42.595 C 16.480 42.203, 17 41.684, 17 41.441 C 17 40.607, 16.117 41.002, 15.405 42.155 M 171.500 42 C 171.840 42.550, 172.343 43, 172.618 43 C 172.893 43, 172.840 42.550, 172.500 42 C 172.160 41.450, 171.657 41, 171.382 41 C 171.107 41, 171.160 41.450, 171.500 42 M 13.405 45.155 C 12.962 45.870, 13.130 46.038, 13.845 45.595 C 14.480 45.203, 15 44.684, 15 44.441 C 15 43.607, 14.117 44.002, 13.405 45.155 M 173.500 45 C 173.840 45.550, 174.343 46, 174.618 46 C 174.893 46, 174.840 45.550, 174.500 45 C 174.160 44.450, 173.657 44, 173.382 44 C 173.107 44, 173.160 44.450, 173.500 45 M 9.954 51.086 C 9.340 52.233, 9.026 53.360, 9.257 53.590 C 9.487 53.820, 10.189 52.882, 10.816 51.504 C 12.194 48.480, 11.523 48.154, 9.954 51.086 M 177.080 51 C 178.538 54.061, 179 54.628, 179 53.358 C 179 52.821, 178.300 51.509, 177.445 50.441 C 175.978 48.611, 175.958 48.643, 177.080 51 M 74.667 56.667 C 74.300 57.033, 74 67.833, 74 80.667 L 74 104 69.500 104 L 65 104 65 108.500 L 65 113 79.500 113 L 94 113 94 108.500 L 94 104 90.059 104 C 85.231 104, 84.972 103.619, 85.996 98.020 C 87.202 91.427, 91.407 88, 98.293 88 C 109.299 88, 111 91.473, 111 113.950 L 111 131 116.500 131 L 122 131 122 112.468 C 122 98.003, 121.660 93.123, 120.452 90.232 C 115.031 77.257, 98.258 73.662, 88.164 83.311 C 86.179 85.209, 84.911 85.892, 85.033 85 C 85.145 84.175, 85.184 77.313, 85.118 69.750 L 85 56 80.167 56 C 77.508 56, 75.033 56.300, 74.667 56.667 M 6.624 58.539 C 5.659 61.053, 5.943 61.702, 7.122 59.675 C 7.706 58.671, 7.973 57.639, 7.715 57.382 C 7.458 57.124, 6.966 57.645, 6.624 58.539 M 180.031 57.500 C 180.031 58.050, 180.467 59.175, 181 60 C 181.533 60.825, 181.969 61.050, 181.969 60.500 C 181.969 59.950, 181.533 58.825, 181 58 C 180.467 57.175, 180.031 56.950, 180.031 57.500 M 5 63 C 5 63.733, 5.300 64.033, 5.667 63.667 C 6.033 63.300, 6.033 62.700, 5.667 62.333 C 5.300 61.967, 5 62.267, 5 63 M 182 63 C 182 63.733, 182.300 64.033, 182.667 63.667 C 183.033 63.300, 183.033 62.700, 182.667 62.333 C 182.300 61.967, 182 62.267, 182 63 M 4 66 C 4 66.733, 4.300 67.033, 4.667 66.667 C 5.033 66.300, 5.033 65.700, 4.667 65.333 C 4.300 64.967, 4 65.267, 4 66 M 183 66 C 183 66.733, 183.300 67.033, 183.667 66.667 C 184.033 66.300, 184.033 65.700, 183.667 65.333 C 183.300 64.967, 183 65.267, 183 66 M 3.079 69.583 C 3.127 70.748, 3.364 70.985, 3.683 70.188 C 3.972 69.466, 3.936 68.603, 3.604 68.271 C 3.272 67.939, 3.036 68.529, 3.079 69.583 M 184.079 69.583 C 184.127 70.748, 184.364 70.985, 184.683 70.188 C 184.972 69.466, 184.936 68.603, 184.604 68.271 C 184.272 67.939, 184.036 68.529, 184.079 69.583 M 2.079 73.583 C 2.127 74.748, 2.364 74.985, 2.683 74.188 C 2.972 73.466, 2.936 72.603, 2.604 72.271 C 2.272 71.939, 2.036 72.529, 2.079 73.583 M 185.079 73.583 C 185.127 74.748, 185.364 74.985, 185.683 74.188 C 185.972 73.466, 185.936 72.603, 185.604 72.271 C 185.272 71.939, 185.036 72.529, 185.079 73.583 M 1.195 78.500 C 1.215 80.150, 1.439 80.704, 1.693 79.731 C 1.947 78.758, 1.930 77.408, 1.656 76.731 C 1.382 76.054, 1.175 76.850, 1.195 78.500 M 186.195 78.500 C 186.215 80.150, 186.439 80.704, 186.693 79.731 C 186.947 78.758, 186.930 77.408, 186.656 76.731 C 186.382 76.054, 186.175 76.850, 186.195 78.500 M 0.385 94 C 0.385 100.875, 0.545 103.688, 0.740 100.250 C 0.936 96.813, 0.936 91.188, 0.740 87.750 C 0.545 84.313, 0.385 87.125, 0.385 94 M 187.385 94 C 187.385 100.875, 187.545 103.688, 187.740 100.250 C 187.936 96.813, 187.936 91.188, 187.740 87.750 C 187.545 84.313, 187.385 87.125, 187.385 94 M 1.195 109.500 C 1.215 111.150, 1.439 111.704, 1.693 110.731 C 1.947 109.758, 1.930 108.408, 1.656 107.731 C 1.382 107.054, 1.175 107.850, 1.195 109.500 M 186.195 109.500 C 186.215 111.150, 186.439 111.704, 186.693 110.731 C 186.947 109.758, 186.930 108.408, 186.656 107.731 C 186.382 107.054, 186.175 107.850, 186.195 109.500 M 2.079 114.583 C 2.127 115.748, 2.364 115.985, 2.683 115.188 C 2.972 114.466, 2.936 113.603, 2.604 113.271 C 2.272 112.939, 2.036 113.529, 2.079 114.583 M 185.079 114.583 C 185.127 115.748, 185.364 115.985, 185.683 115.188 C 185.972 114.466, 185.936 113.603, 185.604 113.271 C 185.272 112.939, 185.036 113.529, 185.079 114.583 M 3.079 118.583 C 3.127 119.748, 3.364 119.985, 3.683 119.188 C 3.972 118.466, 3.936 117.603, 3.604 117.271 C 3.272 116.939, 3.036 117.529, 3.079 118.583 M 184.079 118.583 C 184.127 119.748, 184.364 119.985, 184.683 119.188 C 184.972 118.466, 184.936 117.603, 184.604 117.271 C 184.272 116.939, 184.036 117.529, 184.079 118.583 M 4 122 C 4 122.733, 4.300 123.033, 4.667 122.667 C 5.033 122.300, 5.033 121.700, 4.667 121.333 C 4.300 120.967, 4 121.267, 4 122 M 183 122 C 183 122.733, 183.300 123.033, 183.667 122.667 C 184.033 122.300, 184.033 121.700, 183.667 121.333 C 183.300 120.967, 183 121.267, 183 122 M 65 126.500 L 65 131 79.500 131 L 94 131 94 126.500 L 94 122 79.500 122 L 65 122 65 126.500 M 5 125 C 5 125.733, 5.300 126.033, 5.667 125.667 C 6.033 125.300, 6.033 124.700, 5.667 124.333 C 5.300 123.967, 5 124.267, 5 125 M 182 125 C 182 125.733, 182.300 126.033, 182.667 125.667 C 183.033 125.300, 183.033 124.700, 182.667 124.333 C 182.300 123.967, 182 124.267, 182 125 M 6.031 127.500 C 6.031 128.050, 6.467 129.175, 7 130 C 7.533 130.825, 7.969 131.050, 7.969 130.500 C 7.969 129.950, 7.533 128.825, 7 128 C 6.467 127.175, 6.031 126.950, 6.031 127.500 M 180.624 128.539 C 179.659 131.053, 179.943 131.702, 181.122 129.675 C 181.706 128.671, 181.973 127.639, 181.715 127.382 C 181.458 127.124, 180.966 127.645, 180.624 128.539 M 9 134.642 C 9 135.179, 9.700 136.491, 10.555 137.559 C 12.022 139.389, 12.042 139.357, 10.920 137 C 9.462 133.939, 9 133.372, 9 134.642 M 177.144 136.750 C 176.053 139.300, 176.078 139.359, 177.484 137.559 C 178.318 136.491, 179 135.254, 179 134.809 C 179 133.289, 178.322 133.999, 177.144 136.750 M 13.500 143 C 13.840 143.550, 14.343 144, 14.618 144 C 14.893 144, 14.840 143.550, 14.500 143 C 14.160 142.450, 13.657 142, 13.382 142 C 13.107 142, 13.160 142.450, 13.500 143 M 173.405 143.155 C 172.962 143.870, 173.130 144.038, 173.845 143.595 C 174.480 143.203, 175 142.684, 175 142.441 C 175 141.607, 174.117 142.002, 173.405 143.155 M 15.500 146 C 15.840 146.550, 16.343 147, 16.618 147 C 16.893 147, 16.840 146.550, 16.500 146 C 16.160 145.450, 15.657 145, 15.382 145 C 15.107 145, 15.160 145.450, 15.500 146 M 171.405 146.155 C 170.962 146.870, 171.130 147.038, 171.845 146.595 C 172.480 146.203, 173 145.684, 173 145.441 C 173 144.607, 172.117 145.002, 171.405 146.155 M 17 148.378 C 17 148.585, 17.788 149.373, 18.750 150.128 C 20.336 151.371, 20.371 151.336, 19.128 149.750 C 17.821 148.084, 17 147.555, 17 148.378 M 168.872 149.750 C 167.629 151.336, 167.664 151.371, 169.250 150.128 C 170.916 148.821, 171.445 148, 170.622 148 C 170.415 148, 169.627 148.787, 168.872 149.750 M 21.500 154 C 22.495 155.100, 23.535 156, 23.810 156 C 24.085 156, 23.495 155.100, 22.500 154 C 21.505 152.900, 20.465 152, 20.190 152 C 19.915 152, 20.505 152.900, 21.500 154 M 165.405 154.250 L 163.500 156.500 165.750 154.595 C 167.864 152.805, 168.455 152, 167.655 152 C 167.465 152, 166.453 153.012, 165.405 154.250 M 27 160.500 C 28.292 161.875, 29.574 163, 29.849 163 C 30.124 163, 29.292 161.875, 28 160.500 C 26.708 159.125, 25.426 158, 25.151 158 C 24.876 158, 25.708 159.125, 27 160.500 M 159.924 160.750 L 157.500 163.500 160.250 161.076 C 161.762 159.742, 163 158.505, 163 158.326 C 163 157.541, 162.190 158.180, 159.924 160.750 M 33.500 166 C 34.495 167.100, 35.535 168, 35.810 168 C 36.085 168, 35.495 167.100, 34.500 166 C 33.505 164.900, 32.465 164, 32.190 164 C 31.915 164, 32.505 164.900, 33.500 166 M 153.405 166.250 L 151.500 168.500 153.750 166.595 C 155.864 164.805, 156.455 164, 155.655 164 C 155.465 164, 154.453 165.012, 153.405 166.250 M 37 168.378 C 37 168.585, 37.788 169.373, 38.750 170.128 C 40.336 171.371, 40.371 171.336, 39.128 169.750 C 37.821 168.084, 37 167.555, 37 168.378 M 148.872 169.750 C 147.629 171.336, 147.664 171.371, 149.250 170.128 C 150.916 168.821, 151.445 168, 150.622 168 C 150.415 168, 149.627 168.787, 148.872 169.750 M 41.500 172 C 41.840 172.550, 42.343 173, 42.618 173 C 42.893 173, 42.840 172.550, 42.500 172 C 42.160 171.450, 41.657 171, 41.382 171 C 41.107 171, 41.160 171.450, 41.500 172 M 145.405 172.155 C 144.962 172.870, 145.130 173.038, 145.845 172.595 C 146.480 172.203, 147 171.684, 147 171.441 C 147 170.607, 146.117 171.002, 145.405 172.155 M 44.500 174 C 44.840 174.550, 45.343 175, 45.618 175 C 45.893 175, 45.840 174.550, 45.500 174 C 45.160 173.450, 44.657 173, 44.382 173 C 44.107 173, 44.160 173.450, 44.500 174 M 142.405 174.155 C 141.962 174.870, 142.130 175.038, 142.845 174.595 C 143.480 174.203, 144 173.684, 144 173.441 C 144 172.607, 143.117 173.002, 142.405 174.155 M 50.441 177.445 C 51.509 178.300, 52.821 179, 53.358 179 C 54.628 179, 54.061 178.538, 51 177.080 C 48.643 175.958, 48.611 175.978, 50.441 177.445 M 136 177.500 C 134.625 178.286, 133.976 178.945, 134.559 178.965 C 135.141 178.984, 136.491 178.339, 137.559 177.532 C 140.028 175.664, 139.239 175.648, 136 177.500 M 58 181 C 58.825 181.533, 59.950 181.969, 60.500 181.969 C 61.050 181.969, 60.825 181.533, 60 181 C 59.175 180.467, 58.050 180.031, 57.500 180.031 C 56.950 180.031, 57.175 180.467, 58 181 M 128 181 C 127.175 181.533, 126.950 181.969, 127.500 181.969 C 128.050 181.969, 129.175 181.533, 130 181 C 130.825 180.467, 131.050 180.031, 130.500 180.031 C 129.950 180.031, 128.825 180.467, 128 181 M 62.333 182.667 C 62.700 183.033, 63.300 183.033, 63.667 182.667 C 64.033 182.300, 63.733 182, 63 182 C 62.267 182, 61.967 182.300, 62.333 182.667 M 124.333 182.667 C 124.700 183.033, 125.300 183.033, 125.667 182.667 C 126.033 182.300, 125.733 182, 125 182 C 124.267 182, 123.967 182.300, 124.333 182.667 M 65.333 183.667 C 65.700 184.033, 66.300 184.033, 66.667 183.667 C 67.033 183.300, 66.733 183, 66 183 C 65.267 183, 64.967 183.300, 65.333 183.667 M 121.333 183.667 C 121.700 184.033, 122.300 184.033, 122.667 183.667 C 123.033 183.300, 122.733 183, 122 183 C 121.267 183, 120.967 183.300, 121.333 183.667 M 68.813 184.683 C 69.534 184.972, 70.397 184.936, 70.729 184.604 C 71.061 184.272, 70.471 184.036, 69.417 184.079 C 68.252 184.127, 68.015 184.364, 68.813 184.683 M 117.813 184.683 C 118.534 184.972, 119.397 184.936, 119.729 184.604 C 120.061 184.272, 119.471 184.036, 118.417 184.079 C 117.252 184.127, 117.015 184.364, 117.813 184.683 M 72.813 185.683 C 73.534 185.972, 74.397 185.936, 74.729 185.604 C 75.061 185.272, 74.471 185.036, 73.417 185.079 C 72.252 185.127, 72.015 185.364, 72.813 185.683 M 113.813 185.683 C 114.534 185.972, 115.397 185.936, 115.729 185.604 C 116.061 185.272, 115.471 185.036, 114.417 185.079 C 113.252 185.127, 113.015 185.364, 113.813 185.683 M 77.269 186.693 C 78.242 186.947, 79.592 186.930, 80.269 186.656 C 80.946 186.382, 80.150 186.175, 78.500 186.195 C 76.850 186.215, 76.296 186.439, 77.269 186.693 M 108.269 186.693 C 109.242 186.947, 110.592 186.930, 111.269 186.656 C 111.946 186.382, 111.150 186.175, 109.500 186.195 C 107.850 186.215, 107.296 186.439, 108.269 186.693 M 87.750 187.740 C 91.188 187.936, 96.813 187.936, 100.250 187.740 C 103.688 187.545, 100.875 187.385, 94 187.385 C 87.125 187.385, 84.313 187.545, 87.750 187.740" stroke="none" fill="#fffffd" fill-rule="evenodd"/><path d="M 74.516 2.601 C 14.884 15.877, -16.327 80.665, 10.493 135.500 C 44.025 204.058, 143.975 204.058, 177.507 135.500 C 211.581 65.833, 149.621 -14.120, 74.516 2.601 M 82.531 16.113 C 41.378 22.108, 10.873 61.505, 15.854 102.227 C 23.877 167.817, 102.547 195.453, 149 149 C 201.937 96.063, 156.553 5.331, 82.531 16.113 M 77.566 28.602 C 35.810 38.702, 14.445 86.703, 34.618 125.093 C 61.898 177.006, 138.991 170.638, 157.395 114.950 C 173.851 65.161, 128.633 16.250, 77.566 28.602 M 74.667 56.667 C 74.300 57.033, 74 67.833, 74 80.667 L 74 104 69.500 104 L 65 104 65 108.500 L 65 113 79.500 113 L 94 113 94 108.500 L 94 104 90.059 104 C 85.231 104, 84.972 103.619, 85.996 98.020 C 87.202 91.427, 91.407 88, 98.293 88 C 109.299 88, 111 91.473, 111 113.950 L 111 131 116.500 131 L 122 131 122 112.468 C 122 98.003, 121.660 93.123, 120.452 90.232 C 115.031 77.257, 98.258 73.662, 88.164 83.311 C 86.179 85.209, 84.911 85.892, 85.033 85 C 85.145 84.175, 85.184 77.313, 85.118 69.750 L 85 56 80.167 56 C 77.508 56, 75.033 56.300, 74.667 56.667 M 65 126.500 L 65 131 79.500 131 L 94 131 94 126.500 L 94 122 79.500 122 L 65 122 65 126.500" stroke="none" fill="#000101" fill-rule="evenodd"/></svg>