<svg xmlns="http://www.w3.org/2000/svg" width="400" height="200" viewBox="0 0 400 200" version="1.1"><path d="M 180.516 8.601 C 120.884 21.877, 89.673 86.665, 116.493 141.500 C 150.025 210.058, 249.975 210.058, 283.507 141.500 C 317.581 71.833, 255.621 -8.120, 180.516 8.601 M 188.531 22.113 C 147.378 28.108, 116.873 67.505, 121.854 108.227 C 129.877 173.817, 208.547 201.453, 255 155 C 307.937 102.063, 262.553 11.331, 188.531 22.113 M 183.566 34.602 C 141.810 44.702, 120.445 92.703, 140.618 131.093 C 167.898 183.006, 244.991 176.638, 263.395 120.950 C 279.851 71.161, 234.633 22.250, 183.566 34.602 M 180.667 62.667 C 180.300 63.033, 180 73.833, 180 86.667 L 180 110 175.500 110 C 171 110, 171 110, 171 114.500 L 171 119 185.500 119 L 200 119 200 114.500 C 200 110, 200 110, 196.059 110 C 191.231 110, 190.972 109.619, 191.996 104.020 C 193.202 97.427, 197.407 94, 204.293 94 C 215.299 94, 217 97.473, 217 119.950 L 217 137 222.500 137 L 228 137 228 118.468 C 228 104.003, 227.660 99.123, 226.452 96.232 C 221.031 83.257, 204.258 79.662, 194.164 89.311 C 192.179 91.209, 190.911 91.892, 191.033 91 C 191.145 90.175, 191.184 83.313, 191.118 75.750 L 191 62 186.167 62 C 183.508 62, 181.033 62.300, 180.667 62.667 M 171 132.500 L 171 137 185.500 137 L 200 137 200 132.500 L 200 128 185.500 128 L 171 128 171 132.500" stroke="none" fill="#010001" fill-rule="evenodd"/><path d="M 193.750 6.740 C 197.188 6.936, 202.813 6.936, 206.250 6.740 C 209.688 6.545, 206.875 6.385, 200 6.385 C 193.125 6.385, 190.313 6.545, 193.750 6.740 M 183.269 7.693 C 184.242 7.947, 185.592 7.930, 186.269 7.656 C 186.946 7.382, 186.150 7.175, 184.500 7.195 C 182.850 7.215, 182.296 7.439, 183.269 7.693 M 214.269 7.693 C 215.242 7.947, 216.592 7.930, 217.269 7.656 C 217.946 7.382, 217.150 7.175, 215.500 7.195 C 213.850 7.215, 213.296 7.439, 214.269 7.693 M 156.441 16.555 C 154.611 18.022, 154.643 18.042, 157 16.920 C 160.061 15.462, 160.628 15, 159.358 15 C 158.821 15, 157.509 15.700, 156.441 16.555 M 240.083 15.365 C 240.313 15.565, 241.625 16.265, 243 16.920 C 245.357 18.042, 245.389 18.022, 243.559 16.555 C 241.966 15.279, 238.711 14.164, 240.083 15.365 M 188.531 22.113 C 147.378 28.108, 116.873 67.505, 121.854 108.227 C 129.877 173.817, 208.547 201.453, 255 155 C 307.937 102.063, 262.553 11.331, 188.531 22.113 M 132.924 33.750 L 130.500 36.500 133.250 34.076 C 135.820 31.810, 136.459 31, 135.674 31 C 135.495 31, 134.258 32.237, 132.924 33.750 M 266 33.500 C 267.292 34.875, 268.574 36, 268.849 36 C 269.124 36, 268.292 34.875, 267 33.500 C 265.708 32.125, 264.426 31, 264.151 31 C 263.876 31, 264.708 32.125, 266 33.500 M 183.566 34.602 C 141.810 44.702, 120.445 92.703, 140.618 131.093 C 167.898 183.006, 244.991 176.638, 263.395 120.950 C 279.851 71.161, 234.633 22.250, 183.566 34.602 M 115.954 57.086 C 115.340 58.233, 115.026 59.360, 115.257 59.590 C 115.487 59.820, 116.189 58.882, 116.816 57.504 C 118.194 54.480, 117.523 54.154, 115.954 57.086 M 283.080 57 C 284.538 60.061, 285 60.628, 285 59.358 C 285 58.821, 284.300 57.509, 283.445 56.441 C 281.978 54.611, 281.958 54.643, 283.080 57 M 180.667 62.667 C 180.300 63.033, 180 73.833, 180 86.667 L 180 110 175.500 110 C 171 110, 171 110, 171 114.500 L 171 119 185.500 119 L 200 119 200 114.500 C 200 110, 200 110, 196.059 110 C 191.231 110, 190.972 109.619, 191.996 104.020 C 193.202 97.427, 197.407 94, 204.293 94 C 215.299 94, 217 97.473, 217 119.950 L 217 137 222.500 137 L 228 137 228 118.468 C 228 104.003, 227.660 99.123, 226.452 96.232 C 221.031 83.257, 204.258 79.662, 194.164 89.311 C 192.179 91.209, 190.911 91.892, 191.033 91 C 191.145 90.175, 191.184 83.313, 191.118 75.750 L 191 62 186.167 62 C 183.508 62, 181.033 62.300, 180.667 62.667 M 107.195 84.500 C 107.215 86.150, 107.439 86.704, 107.693 85.731 C 107.947 84.758, 107.930 83.408, 107.656 82.731 C 107.382 82.054, 107.175 82.850, 107.195 84.500 M 292.195 84.500 C 292.215 86.150, 292.439 86.704, 292.693 85.731 C 292.947 84.758, 292.930 83.408, 292.656 82.731 C 292.382 82.054, 292.175 82.850, 292.195 84.500 M 106.385 100 C 106.385 106.875, 106.545 109.688, 106.740 106.250 C 106.936 102.813, 106.936 97.188, 106.740 93.750 C 106.545 90.313, 106.385 93.125, 106.385 100 M 293.385 100 C 293.385 106.875, 293.545 109.688, 293.740 106.250 C 293.936 102.813, 293.936 97.188, 293.740 93.750 C 293.545 90.313, 293.385 93.125, 293.385 100 M 107.195 115.500 C 107.215 117.150, 107.439 117.704, 107.693 116.731 C 107.947 115.758, 107.930 114.408, 107.656 113.731 C 107.382 113.054, 107.175 113.850, 107.195 115.500 M 292.195 115.500 C 292.215 117.150, 292.439 117.704, 292.693 116.731 C 292.947 115.758, 292.930 114.408, 292.656 113.731 C 292.382 113.054, 292.175 113.850, 292.195 115.500 M 171 132.500 L 171 137 185.500 137 L 200 137 200 132.500 L 200 128 185.500 128 L 171 128 171 132.500 M 115 140.642 C 115 141.179, 115.700 142.491, 116.555 143.559 C 118.022 145.389, 118.042 145.357, 116.920 143 C 115.462 139.939, 115 139.372, 115 140.642 M 283.144 142.750 C 282.053 145.300, 282.078 145.359, 283.484 143.559 C 284.318 142.491, 285 141.254, 285 140.809 C 285 139.289, 284.322 139.999, 283.144 142.750 M 133 166.500 C 134.292 167.875, 135.574 169, 135.849 169 C 136.124 169, 135.292 167.875, 134 166.500 C 132.708 165.125, 131.426 164, 131.151 164 C 130.876 164, 131.708 165.125, 133 166.500 M 265.924 166.750 L 263.500 169.500 266.250 167.076 C 267.762 165.742, 269 164.505, 269 164.326 C 269 163.541, 268.190 164.180, 265.924 166.750 M 156.441 183.445 C 157.509 184.300, 158.821 185, 159.358 185 C 160.628 185, 160.061 184.538, 157 183.080 C 154.643 181.958, 154.611 181.978, 156.441 183.445 M 242 183.500 C 240.625 184.286, 239.976 184.945, 240.559 184.965 C 241.141 184.984, 242.491 184.339, 243.559 183.532 C 246.028 181.664, 245.239 181.648, 242 183.500 M 183.269 192.693 C 184.242 192.947, 185.592 192.930, 186.269 192.656 C 186.946 192.382, 186.150 192.175, 184.500 192.195 C 182.850 192.215, 182.296 192.439, 183.269 192.693 M 214.269 192.693 C 215.242 192.947, 216.592 192.930, 217.269 192.656 C 217.946 192.382, 217.150 192.175, 215.500 192.195 C 213.850 192.215, 213.296 192.439, 214.269 192.693 M 193.750 193.740 C 197.188 193.936, 202.813 193.936, 206.250 193.740 C 209.688 193.545, 206.875 193.385, 200 193.385 C 193.125 193.385, 190.313 193.545, 193.750 193.740" stroke="none" fill="#fffffe" fill-rule="evenodd"/></svg>