<svg id="svg" version="1.1" xmlns="http://www.w3.org/2000/svg" xmlns:xlink="http://www.w3.org/1999/xlink" width="400" height="400" viewBox="0, 0, 400,400"><g id="svgg"><path id="path0" d="M191.406 32.661 C 76.782 39.336,2.450 154.487,44.172 260.748 C 79.933 351.826,186.721 392.888,274.023 349.131 C 363.814 304.128,394.193 191.807,339.241 108.008 C 306.976 58.806,249.088 29.302,191.406 32.661 M217.324 56.807 C 301.299 68.775,356.746 145.371,340.776 227.344 C 322.687 320.193,219.856 370.700,135.352 328.240 C 91.474 306.193,63.565 266.297,56.573 215.625 C 55.880 210.604,55.877 188.645,56.569 183.594 C 66.266 112.772,117.927 62.984,188.867 56.092 C 192.737 55.716,213.292 56.233,217.324 56.807 M158.203 170.508 L 158.203 221.094 148.633 221.094 L 139.063 221.094 139.063 230.664 L 139.063 240.234 168.945 240.234 L 198.828 240.234 198.828 230.672 L 198.828 221.109 190.137 221.004 L 181.445 220.898 181.322 217.969 C 180.474 197.776,192.469 185.022,211.328 186.066 C 224.082 186.771,232.593 193.539,236.032 205.712 C 236.894 208.763,236.903 209.085,237.103 243.945 L 237.305 279.102 248.730 279.205 L 260.156 279.309 260.156 244.522 C 260.156 201.233,259.865 198.156,254.826 188.159 C 241.130 160.985,198.946 157.898,182.795 182.887 L 181.250 185.277 181.250 152.600 L 181.250 119.922 169.727 119.922 L 158.203 119.922 158.203 170.508 M139.063 269.531 L 139.063 279.297 168.945 279.297 L 198.828 279.297 198.828 269.531 L 198.828 259.766 168.945 259.766 L 139.063 259.766 139.063 269.531 " stroke="none" fill="#fbfbfb" fill-rule="evenodd"></path><path id="path1" d="M182.227 0.593 C 72.128 10.672,-9.096 107.585,0.584 217.321 C 10.308 327.544,107.394 409.113,217.321 399.416 C 332.328 389.270,414.726 284.923,398.028 170.570 C 382.789 66.211,287.272 -9.024,182.227 0.593 M216.613 33.397 C 345.574 46.747,410.955 196.136,333.208 299.805 C 258.419 399.529,104.556 384.942,49.568 272.915 C -7.885 155.865,86.892 19.969,216.613 33.397 M188.867 56.092 C 117.927 62.984,66.266 112.772,56.569 183.594 C 55.877 188.645,55.880 210.604,56.573 215.625 C 66.932 290.690,125.591 343.057,199.414 343.145 C 292.899 343.256,361.380 256.407,339.382 165.635 C 325.324 107.627,278.029 65.459,217.324 56.807 C 213.292 56.233,192.737 55.716,188.867 56.092 M181.250 152.600 L 181.250 185.277 182.795 182.887 C 198.946 157.898,241.130 160.985,254.826 188.159 C 259.865 198.156,260.156 201.233,260.156 244.522 L 260.156 279.309 248.730 279.205 L 237.305 279.102 237.103 243.945 C 236.903 209.085,236.894 208.763,236.032 205.712 C 232.593 193.539,224.082 186.771,211.328 186.066 C 192.469 185.022,180.474 197.776,181.322 217.969 L 181.445 220.898 190.137 221.004 L 198.828 221.109 198.828 230.672 L 198.828 240.234 168.945 240.234 L 139.063 240.234 139.063 230.664 L 139.063 221.094 148.633 221.094 L 158.203 221.094 158.203 170.508 L 158.203 119.922 169.727 119.922 L 181.250 119.922 181.250 152.600 M198.828 269.531 L 198.828 279.297 168.945 279.297 L 139.063 279.297 139.063 269.531 L 139.063 259.766 168.945 259.766 L 198.828 259.766 198.828 269.531 " stroke="none" fill="#040404" fill-rule="evenodd"></path></g></svg>