<svg xmlns="http://www.w3.org/2000/svg" width="500" height="500" viewBox="0 0 500 500" version="1.1"><path d="M 147.730 64.543 C 144.411 67.861, 144.255 71.064, 147.250 74.379 C 149.641 77.025, 166.562 87, 168.661 87 C 171.543 87, 174.971 84.521, 175.943 81.733 C 177.632 76.889, 175.518 74.135, 165.530 68.160 C 154.315 61.451, 151.412 60.861, 147.730 64.543 M 167 112 C 164.724 114.276, 164.327 119.721, 166.250 122.283 C 166.938 123.199, 178.975 130.541, 193 138.599 C 239.262 165.178, 270.294 183.077, 283.250 190.656 C 296.418 198.359, 299.564 199.964, 301.526 199.982 C 302.640 199.992, 306.806 197.975, 310.783 195.500 C 314.760 193.025, 318.179 191, 318.381 191 C 318.582 191, 323.867 188.018, 330.124 184.373 C 336.381 180.728, 348.080 173.985, 356.123 169.387 C 372.516 160.017, 374.506 157.812, 371.616 152.224 C 368.621 146.432, 364.482 146.579, 353.781 152.859 C 349.226 155.532, 336.279 163.021, 325.010 169.501 C 313.740 175.981, 303.802 181.731, 302.925 182.279 C 301.694 183.048, 297.256 180.931, 283.415 172.975 C 273.562 167.310, 263.025 161.252, 260 159.512 C 256.975 157.773, 247.075 152.061, 238 146.819 C 170.063 107.578, 174.434 110, 171.531 110 C 170.139 110, 168.100 110.900, 167 112 M 81.250 117.689 C 82.213 117.941, 83.787 117.941, 84.750 117.689 C 85.713 117.438, 84.925 117.232, 83 117.232 C 81.075 117.232, 80.287 117.438, 81.250 117.689 M 85.073 139.635 C 81.485 144.196, 82.948 148.671, 89.177 152.189 C 94.415 155.147, 129.101 175.211, 145 184.479 C 157.326 191.664, 161.452 192.711, 164.954 189.542 C 167.563 187.180, 167.733 180.968, 165.250 178.741 C 164.287 177.877, 154.500 172.009, 143.500 165.700 C 132.500 159.391, 116.787 150.353, 108.582 145.615 C 91.919 135.992, 88.602 135.148, 85.073 139.635 M 36.174 147.314 C 33.784 149.859, 33.349 154.594, 35.282 157.045 C 36.281 158.312, 59.319 171.984, 80.873 184.101 C 83.418 185.532, 92.475 190.754, 101 195.705 C 122.244 208.044, 132.212 213.808, 155.500 227.220 C 166.500 233.554, 182.700 242.922, 191.500 248.035 C 200.300 253.149, 210.650 259.119, 214.500 261.302 C 218.350 263.485, 226.343 268.135, 232.262 271.636 C 238.182 275.136, 243.228 278, 243.477 278 C 243.726 278, 248.333 280.613, 253.715 283.807 C 259.097 287.001, 266.762 291.521, 270.750 293.852 L 278 298.089 278 371.006 L 278 443.922 280.189 445.961 C 282.936 448.521, 287.070 448.574, 290.139 446.089 L 292.500 444.177 292.769 368.341 C 292.951 316.785, 292.699 291.703, 291.982 290.002 C 291.235 288.232, 285.894 284.614, 273.713 277.628 C 247.980 262.869, 219.063 246.203, 205 238.027 C 198.125 234.030, 179.450 223.240, 163.500 214.050 C 147.550 204.860, 130 194.726, 124.500 191.530 C 119 188.333, 113.150 184.950, 111.500 184.011 C 104.538 180.048, 86.070 169.432, 65.605 157.628 C 52.454 150.044, 42.639 145, 41.029 145 C 39.520 145, 37.398 146.012, 36.174 147.314 M 430.275 173.054 C 423.555 174.477, 419.199 179.096, 418.308 185.742 C 417.798 189.540, 417.686 189.624, 397.824 201.031 C 386.839 207.339, 375.073 214.122, 371.676 216.104 C 368.279 218.085, 356.500 224.880, 345.500 231.202 C 334.500 237.525, 320.100 245.871, 313.500 249.750 L 301.500 256.801 294 252.738 C 289.875 250.503, 285.375 247.903, 284 246.959 C 282.625 246.015, 277.900 243.236, 273.500 240.784 C 269.100 238.332, 258.300 232.138, 249.500 227.020 C 217.427 208.366, 209.455 204.030, 207.202 204.015 C 204.169 203.995, 200 208.600, 200 211.972 C 200 215.482, 202.426 217.582, 214.500 224.526 C 228.427 232.536, 260.177 250.856, 280.986 262.889 C 291.673 269.069, 299.550 273, 301.245 273 C 302.801 273, 308.291 270.517, 313.759 267.340 C 325.388 260.583, 327.740 259.225, 358 241.788 C 370.925 234.340, 391.775 222.307, 404.333 215.049 C 425.682 202.711, 427.417 201.895, 431.016 202.503 C 436.258 203.388, 443.264 200.256, 445.970 195.818 C 448.604 191.497, 448.687 183.562, 446.137 179.695 C 442.575 174.292, 436.478 171.740, 430.275 173.054 M 190 173.449 C 190 173.724, 191.350 174.647, 193 175.500 C 194.650 176.353, 196 176.826, 196 176.551 C 196 176.276, 194.650 175.353, 193 174.500 C 191.350 173.647, 190 173.174, 190 173.449 M 39 218.689 C 35.660 219.963, 34 222.391, 34 226 C 34 230.544, 34.410 230.905, 49.365 239.508 C 61.879 246.706, 65.533 247.638, 68.987 244.512 C 71.565 242.179, 71.717 235.949, 69.250 233.751 C 66.549 231.345, 44.922 219.005, 42.580 218.534 C 41.436 218.304, 39.825 218.374, 39 218.689 M 440.629 249.791 C 440.360 250.226, 441.684 250.402, 443.570 250.182 C 445.457 249.961, 447 249.605, 447 249.391 C 447 248.638, 441.113 249.008, 440.629 249.791 M 86.232 261 C 86.232 262.925, 86.438 263.712, 86.689 262.750 C 86.941 261.788, 86.941 260.212, 86.689 259.250 C 86.438 258.288, 86.232 259.075, 86.232 261 M 226.017 291.286 C 220.840 293.905, 220.832 301.767, 226.003 304.781 C 227.625 305.726, 232.788 308.712, 237.476 311.415 L 246 316.330 246 365.491 L 246 414.651 243.413 417.076 C 240.537 419.770, 237.988 425.111, 238.022 428.372 C 238.063 432.320, 241.816 438.917, 245.192 440.976 C 249.215 443.428, 256.830 443.656, 261.094 441.451 C 265.452 439.198, 267.993 434.429, 267.993 428.500 C 267.993 423.291, 265.349 417.455, 262.494 416.359 C 261.194 415.861, 261 408.865, 261 362.616 C 261 317.038, 260.786 309.140, 259.504 307.310 C 257.689 304.718, 232.134 289.991, 229.500 290.019 C 228.950 290.025, 227.382 290.595, 226.017 291.286 M 309.475 366.500 C 309.475 407.750, 309.598 424.771, 309.750 404.324 C 309.901 383.877, 309.901 350.127, 309.750 329.324 C 309.599 308.521, 309.475 325.250, 309.475 366.500 M 324.474 369.500 C 324.475 409.650, 324.598 425.929, 324.750 405.676 C 324.901 385.423, 324.901 352.573, 324.750 332.676 C 324.598 312.779, 324.474 329.350, 324.474 369.500 M 341.459 309.250 C 341.196 309.938, 341.098 336.150, 341.241 367.500 L 341.501 424.500 342 366.250 C 342.275 334.212, 342.373 308, 342.219 308 C 342.064 308, 341.722 308.563, 341.459 309.250 M 357.114 315.363 C 356.296 316.349, 356.056 331.507, 356.250 370.113 L 356.518 423.500 356.759 369.950 C 356.939 329.908, 357.303 316.097, 358.200 315.200 C 358.860 314.540, 359.140 314, 358.822 314 C 358.505 314, 357.736 314.613, 357.114 315.363 M 373.454 367 C 373.454 388.175, 373.587 396.838, 373.749 386.250 C 373.911 375.663, 373.911 358.338, 373.749 347.750 C 373.587 337.163, 373.454 345.825, 373.454 367 M 214.448 368 C 214.448 386.425, 214.583 393.962, 214.748 384.750 C 214.913 375.538, 214.913 360.462, 214.748 351.250 C 214.583 342.038, 214.448 349.575, 214.448 368 M 405.217 358.550 C 405.073 367.219, 404.583 372.087, 403.757 373.050 C 402.959 373.981, 403.150 373.939, 404.288 372.933 C 405.848 371.555, 406.025 369.805, 405.749 358.433 L 405.435 345.500 405.217 358.550 M 182.411 370 C 182.411 379.625, 182.561 383.563, 182.745 378.750 C 182.928 373.938, 182.928 366.063, 182.745 361.250 C 182.561 356.438, 182.411 360.375, 182.411 370 M 427.232 385 C 427.232 386.925, 427.438 387.712, 427.689 386.750 C 427.941 385.788, 427.941 384.212, 427.689 383.250 C 427.438 382.288, 427.232 383.075, 427.232 385 M 402.220 395.533 C 403.716 397.106, 405.119 398.193, 405.338 397.947 C 405.557 397.701, 404.333 396.414, 402.618 395.086 L 399.500 392.672 402.220 395.533 M 410.762 399.707 C 412.006 399.946, 413.806 399.937, 414.762 399.687 C 415.718 399.437, 414.700 399.241, 412.500 399.252 C 410.300 399.263, 409.518 399.468, 410.762 399.707" stroke="none" fill="#40bed9" fill-rule="evenodd"/><path d="M 79.169 88.994 C 72.275 90.621, 67.196 98.728, 68.617 105.836 C 68.959 107.545, 70.709 110.643, 72.506 112.721 L 75.773 116.500 84.181 116.538 L 92.589 116.575 106.545 124.684 C 139.057 143.575, 164.179 158.116, 174 163.726 C 179.775 167.026, 191.680 173.838, 200.455 178.865 C 216.916 188.294, 218.302 188.695, 222.299 185.183 C 223.537 184.094, 224.004 182.497, 223.799 180.051 C 223.542 177.002, 222.742 175.994, 218.140 172.918 C 215.192 170.948, 211.145 168.473, 209.147 167.418 C 207.149 166.363, 200.561 162.638, 194.507 159.140 C 176.575 148.779, 133.789 124.076, 115.314 113.416 C 98.499 103.714, 98.105 103.411, 97.079 99.367 C 95.932 94.848, 90.273 89, 87.047 89 C 86.011 89, 84.564 88.822, 83.832 88.604 C 83.099 88.387, 81.001 88.562, 79.169 88.994 M 202.228 94.230 C 200.979 94.832, 199.677 96.440, 199.335 97.803 C 197.915 103.459, 199.400 104.736, 224.002 119.013 C 286.858 155.489, 298.564 162, 301.286 162 C 304.171 162, 333.421 145.745, 337.750 141.735 C 342.115 137.693, 339.312 130, 333.474 130 C 332.085 130, 324.252 133.867, 316.067 138.593 L 301.185 147.186 284.343 137.437 C 275.079 132.075, 258.950 122.765, 248.500 116.748 C 201.742 89.825, 206.532 92.156, 202.228 94.230 M 373.139 179.059 C 361.940 185.627, 352.668 191, 352.535 191 C 352.403 191, 346.040 194.665, 338.397 199.145 C 330.754 203.625, 322.925 208.179, 321 209.265 C 319.075 210.352, 314.081 213.212, 309.902 215.620 C 305.723 218.029, 301.802 220, 301.190 220 C 300.250 220, 273.504 204.954, 255.206 194.131 C 252.294 192.409, 248.807 191, 247.456 191 C 242.342 191, 239.073 198.075, 242.250 202.267 C 243.389 203.770, 253.730 209.919, 287.489 229.165 C 294.083 232.924, 300.383 235.998, 301.489 235.996 C 302.595 235.994, 305.075 235.028, 307 233.850 C 308.925 232.671, 317.700 227.563, 326.500 222.498 C 335.300 217.434, 349.700 209.125, 358.500 204.035 C 367.300 198.945, 380.517 191.343, 387.871 187.140 C 395.225 182.938, 401.912 178.491, 402.731 177.257 C 404.409 174.731, 403.847 170.990, 401.427 168.570 C 398.128 165.271, 394.107 166.762, 373.139 179.059 M 429 220.378 C 413.799 229.227, 389.120 243.491, 363 258.524 C 318.890 283.912, 313.424 287.179, 311.750 289.155 C 310.117 291.084, 310 296.289, 310 367.111 C 310 441.667, 310.035 443.035, 312 445 C 314.554 447.554, 320.106 447.645, 322.345 445.171 C 323.853 443.505, 324 436.870, 324 370.389 L 324 297.435 338.750 288.994 C 346.863 284.351, 359.058 277.278, 365.851 273.276 C 372.645 269.274, 378.332 266, 378.489 266 C 378.647 266, 387.939 260.681, 399.138 254.180 C 410.337 247.679, 426.371 238.385, 434.769 233.527 C 446.825 226.553, 450.184 224.147, 450.727 222.097 C 451.598 218.809, 451.226 216.955, 449.255 214.750 C 446.398 211.554, 442.113 212.745, 429 220.378 M 93.223 216.557 C 90.577 218.410, 90.174 224.031, 92.518 226.375 C 93.352 227.210, 97.965 230.119, 102.768 232.839 C 107.570 235.560, 116.900 240.914, 123.500 244.736 C 130.100 248.559, 148.442 259.182, 164.259 268.343 C 180.466 277.730, 194.106 285, 195.509 285 C 200.644 285, 203.957 277.902, 200.750 273.773 C 200.063 272.888, 193.650 268.819, 186.500 264.732 C 179.350 260.644, 161.800 250.534, 147.500 242.265 C 133.200 233.996, 119.342 226.028, 116.705 224.558 C 114.068 223.089, 109.343 220.338, 106.205 218.446 C 99.945 214.671, 96.608 214.185, 93.223 216.557 M 95.020 247.752 C 84.706 252.934, 84.342 267.562, 94.379 273.548 C 96.661 274.909, 98.611 275.139, 103.790 274.655 L 110.323 274.045 131.412 286.216 C 143.010 292.910, 160.825 303.184, 171 309.048 C 206.261 329.367, 209.513 331.271, 212.271 333.214 L 215.041 335.166 214.974 370.202 C 214.913 401.848, 215.071 405.421, 216.608 407.119 C 219.187 409.969, 224.392 409.589, 226.927 406.365 C 228.941 403.806, 229 402.655, 229 366.088 C 229 334.805, 228.755 328.095, 227.549 326.373 C 226.750 325.233, 220.338 321.013, 213.299 316.994 C 206.259 312.975, 196.900 307.576, 192.500 304.995 C 188.100 302.414, 169.135 291.448, 150.357 280.626 C 117.717 261.816, 116.186 260.802, 115.584 257.597 C 114.812 253.483, 111.152 249.379, 106.533 247.449 C 101.989 245.551, 99.257 245.623, 95.020 247.752 M 437.500 252.326 C 425.438 259.267, 383.698 283.341, 372.500 289.815 C 365.350 293.948, 356.015 299.306, 351.755 301.722 C 347.495 304.137, 343.557 306.959, 343.005 307.991 C 342.365 309.186, 342 330.775, 342 367.395 L 342 424.922 344.189 426.961 C 347.085 429.660, 351.137 429.548, 353.817 426.695 C 355.976 424.396, 355.983 424.228, 356.241 369.990 L 356.500 315.590 364 311.168 C 370.344 307.427, 389.637 296.299, 441.219 266.630 C 451.034 260.985, 452.695 258.559, 450.434 253.180 C 449.263 250.395, 448.624 250.001, 445.298 250.012 C 443.179 250.019, 439.732 251.042, 437.500 252.326 M 432 292.158 C 427.325 294.913, 421.700 298.185, 419.500 299.429 C 396.649 312.351, 376.264 324.494, 375.250 325.787 C 374.298 327.002, 374 336.847, 374 367.119 L 374 406.855 376.707 408.984 C 378.598 410.472, 380.179 410.926, 381.957 410.491 C 387.581 409.115, 387.459 409.923, 388 370.327 L 388.500 333.723 398.500 327.989 C 404 324.836, 413.619 319.274, 419.876 315.628 C 426.133 311.983, 431.405 309, 431.591 309 C 432.600 309, 447.693 299.466, 448.750 298.161 C 452.089 294.039, 448.562 286.930, 443.250 287.075 C 441.738 287.116, 436.675 289.403, 432 292.158 M 136.635 315.073 C 133.750 317.342, 133.128 321.468, 135.250 324.266 C 135.938 325.172, 143.475 329.934, 152 334.847 C 160.525 339.760, 170.875 345.778, 175 348.220 L 182.500 352.660 183 370.913 C 183.454 387.501, 183.677 389.295, 185.441 390.583 C 188.301 392.671, 192.623 392.321, 194.961 389.811 C 196.877 387.755, 197 386.372, 197 366.922 C 197 348.645, 196.795 345.985, 195.250 344.197 C 193.802 342.522, 183.560 336.325, 163.564 325.025 C 161.879 324.073, 156.469 320.978, 151.542 318.147 C 146.615 315.316, 141.838 313, 140.927 313 C 140.015 313, 138.084 313.933, 136.635 315.073 M 426.289 332.304 C 417.380 337.421, 409.170 342.441, 408.045 343.459 C 406.180 345.147, 406 346.482, 406 358.632 C 406 371.663, 405.947 371.989, 403.552 373.558 C 400.265 375.712, 397.576 382.924, 398.407 387.355 C 401.563 404.181, 426.979 402.087, 426.990 385 C 426.993 380.294, 424.211 374.402, 421.494 373.359 C 420.303 372.902, 420 370.704, 420 362.508 L 420 352.230 433.378 344.624 C 440.736 340.441, 447.786 336.184, 449.045 335.165 C 453.737 331.365, 450.703 323, 444.632 323 C 443.452 323, 435.197 327.187, 426.289 332.304" stroke="none" fill="#6d6d74" fill-rule="evenodd"/></svg>